    General
          Format : Flash Video
          File size : 1.03 GiB
          Duration : 1h 31mn
          Overall bit rate : 1 609 Kbps
          Tagging application : Yet Another Metadata Injector for FLV - Version 1.8
       Video
          Format : AVC
          Format/Info : Advanced Video Codec
          Format profile : High@L4.0
          Format settings, CABAC : Yes
          Format settings, ReFrames : 4 frames
          Codec ID : 7
          Duration : 1h 31mn
          Bit rate : 1 437 Kbps
          Width : 1 904 pixels
          Height : 792 pixels
          Display aspect ratio : 2.40:1
          Frame rate mode : Constant
          Frame rate : 24.000 fps
          Color space : YUV
          Chroma subsampling : 4:2:0
          Bit depth : 8 bits
          Scan type : Progressive
          Bits/(Pixel*Frame) : 0.040
          Stream size : 969 MiB (92%)
       Audio
          Format : AAC
          Format/Info : Advanced Audio Codec
          Format profile : HE-AAC / LC
          Codec ID : 10
          Duration : 1h 31mn
          Bit rate : 128 Kbps
          Channel(s) : 2 channels
          Channel positions : Front: L R
          Sampling rate : 48.0 KHz / 24.0 KHz
          Compression mode : Lossy
          Stream size : 87.6 MiB (8%)